<?xml version="1.0" encoding="UTF-8"?>
<!-- Generated by Pixelmator Pro 2.4.5 -->
<svg width="1024" height="1024" viewBox="0 0 1024 1024" xmlns="http://www.w3.org/2000/svg" xmlns:xlink="http://www.w3.org/1999/xlink">
    <path id="Rectangle" fill="#ffffff" fill-rule="evenodd" stroke="none" d="M 0 1024 L 1024 1024 L 1024 0 L 0 0 Z"/>
    <path id="Path" fill="#efc75e" stroke="none" d="M 204.646408 358.400024 L 511.856628 204.943359 L 819.066895 358.400024 L 818.892822 378.685425 L 511.856628 532.326416 L 204.769272 378.931213 L 204.646408 358.400024 Z"/>
    <path id="path1" fill="#e7bf55" stroke="none" d="M 204.656647 358.400024 L 511.621124 511.989746 L 819.056641 358.400024 L 819.056641 665.599976 L 510.740479 819.200012 L 204.656647 665.599976 L 204.656647 358.400024 Z"/>
    <path id="path2" fill="#dbb551" stroke="none" d="M 511.856628 818.63678 L 511.856628 511.866882 L 511.621124 511.989746 L 204.656647 358.400024 L 204.656647 665.599976 L 510.740479 819.200012 Z"/>
    <path id="path3" fill="#f1d999" stroke="none" d="M 634.777588 450.467834 L 634.777588 540.497925 L 662.200317 542.709778 L 679.679993 521.891846 L 696.135681 524.482544 L 696.135681 419.809326 Z"/>
    <path id="path4" fill="#f7e3af" stroke="none" d="M 327.342072 297.113586 L 639.764465 453.570557 L 696.104919 420.188171 L 388.904968 266.352661 Z"/>
    <path id="path5" fill="#f2f2f2" stroke="none" d="M 450.344971 646.369263 L 348.108795 595.066895 C 342.466553 592.230347 337.889282 595.681274 337.889282 602.75708 L 337.889282 666.869751 C 337.889282 673.955872 342.466553 682.004456 348.108795 684.830688 L 450.344971 736.133118 C 455.987183 738.959351 460.564484 735.508545 460.564484 728.432617 L 460.564484 664.320007 C 460.564484 657.244141 455.976959 649.195496 450.344971 646.369263 Z M 424.775665 697.661377 L 363.43808 666.869751 C 360.62207 665.456665 358.328308 661.442566 358.328308 657.899536 C 358.328308 654.356445 360.62207 652.636169 363.43808 654.049316 L 424.775665 684.830688 C 427.591675 686.254028 429.885437 690.268127 429.885437 693.811157 C 429.885437 697.354248 427.601929 699.074524 424.775665 697.661377 Z M 434.995209 677.140503 L 363.43808 641.22876 C 360.62207 639.80542 358.328308 635.791382 358.328308 632.248291 C 358.328308 628.705261 360.62207 626.984985 363.43808 628.398071 L 434.995209 664.320007 C 437.821442 665.733154 440.10495 669.757446 440.10495 673.290222 C 440.10495 676.833252 437.831665 678.563843 434.995209 677.140503 Z"/>
</svg>
